<?xml version="1.0" encoding="utf-8"?>
<!-- Generator: Adobe Illustrator 18.0.0, SVG Export Plug-In . SVG Version: 6.00 Build 0)  -->
<!DOCTYPE svg PUBLIC "-//W3C//DTD SVG 1.1//EN" "http://www.w3.org/Graphics/SVG/1.1/DTD/svg11.dtd">
<svg version="1.1" id="Layer_1" xmlns="http://www.w3.org/2000/svg" xmlns:xlink="http://www.w3.org/1999/xlink" x="0px" y="0px"
	 viewBox="0 0 1024 768" enable-background="new 0 0 1024 768" xml:space="preserve">
<g>
	<g>
		<rect x="195.7" y="520.2" fill="none" width="632.6" height="65.1"/>
		
			<text transform="matrix(1 0 0 1 292.3298 543.6462)" fill="#164171" font-family="'Avenir-Heavy'" font-size="31.0118" letter-spacing="4">DIGITAL SERVICE at VA</text>
		<line fill="none" stroke="#164171" stroke-miterlimit="10" x1="253.8" y1="576" x2="770.2" y2="576"/>
	</g>
	<g>
		<g>
			<g>
				<path fill="#164171" d="M806.3,233H512H217.7c-1.7,0-2.9,1.6-2.7,3.5c3.8,26.3,26.4,41.8,41.2,48h511.6
					c14.7-6.3,37.4-21.7,41.2-48C809.2,234.7,807.9,233,806.3,233z"/>
				<path fill="#164171" d="M305.1,323.9h413.7c11.4-4.1,31.3-13.5,40-32.8H265.2C273.9,310.4,293.7,319.9,305.1,323.9z"/>
				<path fill="#164171" d="M356.8,356.8c0.1,0,12.4,0.1,12.6,0.1c4,0,59.3,0.2,142.6,0.3c83.4-0.1,138.6-0.3,142.6-0.3
					c0.2,0,12.5,0,12.6-0.1c3.2-0.8,27.9-2,43.2-26.3H313.6C328.8,354.8,353.6,356,356.8,356.8z"/>
			</g>
			<path fill="#2E84BF" d="M710.5,229.8c0,87.4-88.9,158.3-198.5,158.3c-109.6,0-198.5-70.9-198.5-158.3"/>
		</g>
		<g>
			<g>
				<g>
					<path fill="#164171" d="M420.8,198.1v163.2c0,2,0.7,3.9,2.1,5.3l83.4,89.1c3.1,3.3,8.3,3.3,11.3,0l83.4-89.1
						c1.3-1.4,2.1-3.3,2.1-5.3V198.1c0-4.3-3.5-7.8-7.8-7.8H428.6C424.3,190.3,420.8,193.8,420.8,198.1z"/>
					<g>
						<g>
							<path fill="#CCCCCC" d="M426.5,210.7c0,0-10-11.2-11.1-12.7c-0.1-0.1-0.1-0.1-0.1-0.1c-0.3-0.6-0.8-5,2.1-9.2
								c0,0-1.1,5.8-0.7,8.3C416.6,197,429.2,209.7,426.5,210.7z"/>
							<path fill="#F2F2F2" d="M415.4,198.1c0,0,9.8,10.1,11.8,13.9c0,0,2.9,4.8-0.1,11.1c0,0-9.8-11.6-11.5-13.2
								C415.6,209.9,410.7,201.5,415.4,198.1z"/>
							<path fill="#CCCCCC" d="M426.6,222.4c0,0-10-11.2-11.1-12.7c-0.1-0.1-0.1-0.1-0.1-0.1c-0.3-0.6-2.9-4.3-1.8-8.5
								c0,0,0.3,4.8,3.2,7.6C416.7,208.7,429.3,221.4,426.6,222.4z"/>
						</g>
						<g>
							<path fill="#F2F2F2" d="M415.3,199.7c0,0,9.8,10.1,11.8,13.9c0,0,2.9,4.8-0.1,11.1c0,0-9.8-11.6-11.5-13.2
								C415.5,211.5,410.5,203.1,415.3,199.7z"/>
							<path fill="#CCCCCC" d="M426.5,224c0,0-10-11.2-11.1-12.7c-0.1-0.1-0.1-0.1-0.1-0.1c-0.3-0.6-2.9-4.3-1.8-8.5
								c0,0,0.3,4.8,3.2,7.6C416.6,210.3,429.2,223.1,426.5,224z"/>
							<path fill="#F2F2F2" d="M415.4,211.4c0,0,9.8,10.1,11.8,13.9c0,0,2.9,4.8-0.1,11.1c0,0-9.8-11.6-11.5-13.2
								C415.6,223.2,410.7,214.8,415.4,211.4z"/>
							<path fill="#CCCCCC" d="M426.6,235.7c0,0-10-11.2-11.1-12.7c-0.1-0.1-0.1-0.1-0.1-0.1c-0.3-0.6-2.9-4.3-1.8-8.5
								c0,0,0.3,4.8,3.2,7.6C416.7,222,429.3,234.7,426.6,235.7z"/>
						</g>
						<g>
							<path fill="#F2F2F2" d="M415.3,213c0,0,9.8,10.1,11.8,13.9c0,0,2.9,4.8-0.1,11.1c0,0-9.8-11.6-11.5-13.2
								C415.5,224.9,410.5,216.5,415.3,213z"/>
							<path fill="#CCCCCC" d="M426.5,237.4c0,0-10-11.2-11.1-12.7c-0.1-0.1-0.1-0.1-0.1-0.1c-0.3-0.6-2.9-4.3-1.8-8.5
								c0,0,0.3,4.8,3.2,7.6C416.6,223.6,429.2,236.4,426.5,237.4z"/>
							<path fill="#F2F2F2" d="M415.4,224.7c0,0,9.8,10.1,11.8,13.9c0,0,2.9,4.8-0.1,11.1c0,0-9.8-11.6-11.5-13.2
								C415.6,236.5,410.7,228.1,415.4,224.7z"/>
							<path fill="#CCCCCC" d="M426.6,249.1c0,0-10-11.2-11.1-12.7c-0.1-0.1-0.1-0.1-0.1-0.1c-0.3-0.6-2.9-4.3-1.8-8.5
								c0,0,0.3,4.8,3.2,7.6C416.7,235.3,429.3,248.1,426.6,249.1z"/>
						</g>
						<g>
							<path fill="#F2F2F2" d="M415.3,226.4c0,0,9.8,10.1,11.8,13.9c0,0,2.9,4.8-0.1,11.1c0,0-9.8-11.6-11.5-13.2
								C415.5,238.2,410.5,229.8,415.3,226.4z"/>
							<path fill="#CCCCCC" d="M426.5,250.7c0,0-10-11.2-11.1-12.7c-0.1-0.1-0.1-0.1-0.1-0.1c-0.3-0.6-2.9-4.3-1.8-8.5
								c0,0,0.3,4.8,3.2,7.6C416.6,237,429.2,249.7,426.5,250.7z"/>
							<path fill="#F2F2F2" d="M415.4,238c0,0,9.8,10.1,11.8,13.9c0,0,2.9,4.8-0.1,11.1c0,0-9.8-11.6-11.5-13.2
								C415.6,249.9,410.7,241.5,415.4,238z"/>
							<path fill="#CCCCCC" d="M426.6,262.4c0,0-10-11.2-11.1-12.7c-0.1-0.1-0.1-0.1-0.1-0.1c-0.3-0.6-2.9-4.3-1.8-8.5
								c0,0,0.3,4.8,3.2,7.6C416.7,248.6,429.3,261.4,426.6,262.4z"/>
						</g>
						<g>
							<path fill="#F2F2F2" d="M415.3,239.7c0,0,9.8,10.1,11.8,13.9c0,0,2.9,4.8-0.1,11.1c0,0-9.8-11.6-11.5-13.2
								C415.5,251.5,410.5,243.1,415.3,239.7z"/>
							<path fill="#CCCCCC" d="M426.5,264c0,0-10-11.2-11.1-12.7c-0.1-0.1-0.1-0.1-0.1-0.1c-0.3-0.6-2.9-4.3-1.8-8.5
								c0,0,0.3,4.8,3.2,7.6C416.6,250.3,429.2,263,426.5,264z"/>
							<path fill="#F2F2F2" d="M415.4,251.4c0,0,9.8,10.1,11.8,13.9c0,0,2.9,4.8-0.1,11.1c0,0-9.8-11.6-11.5-13.2
								C415.6,263.2,410.7,254.8,415.4,251.4z"/>
							<path fill="#CCCCCC" d="M426.6,275.7c0,0-10-11.2-11.1-12.7c-0.1-0.1-0.1-0.1-0.1-0.1c-0.3-0.6-2.9-4.3-1.8-8.5
								c0,0,0.3,4.8,3.2,7.6C416.7,262,429.3,274.7,426.6,275.7z"/>
						</g>
						<g>
							<path fill="#F2F2F2" d="M415.3,253c0,0,9.8,10.1,11.8,13.9c0,0,2.9,4.8-0.1,11.1c0,0-9.8-11.6-11.5-13.2
								C415.5,264.8,410.5,256.4,415.3,253z"/>
							<path fill="#CCCCCC" d="M426.5,277.3c0,0-10-11.2-11.1-12.7c-0.1-0.1-0.1-0.1-0.1-0.1c-0.3-0.6-2.9-4.3-1.8-8.5
								c0,0,0.3,4.8,3.2,7.6C416.6,263.6,429.2,276.3,426.5,277.3z"/>
							<path fill="#F2F2F2" d="M415.4,264.7c0,0,9.8,10.1,11.8,13.9c0,0,2.9,4.8-0.1,11.1c0,0-9.8-11.6-11.5-13.2
								C415.6,276.5,410.7,268.1,415.4,264.7z"/>
							<path fill="#CCCCCC" d="M426.6,289c0,0-10-11.2-11.1-12.7c-0.1-0.1-0.1-0.1-0.1-0.1c-0.3-0.6-2.9-4.3-1.8-8.5
								c0,0,0.3,4.8,3.2,7.6C416.7,275.3,429.3,288,426.6,289z"/>
						</g>
						<g>
							<path fill="#F2F2F2" d="M415.3,266.3c0,0,9.8,10.1,11.8,13.9c0,0,2.9,4.8-0.1,11.1c0,0-9.8-11.6-11.5-13.2
								C415.5,278.1,410.5,269.7,415.3,266.3z"/>
							<path fill="#CCCCCC" d="M426.5,290.7c0,0-10-11.2-11.1-12.7c-0.1-0.1-0.1-0.1-0.1-0.1c-0.3-0.6-2.9-4.3-1.8-8.5
								c0,0,0.3,4.8,3.2,7.6C416.6,276.9,429.2,289.7,426.5,290.7z"/>
							<path fill="#F2F2F2" d="M415.4,278c0,0,9.8,10.1,11.8,13.9c0,0,2.9,4.8-0.1,11.1c0,0-9.8-11.6-11.5-13.2
								C415.6,289.8,410.7,281.4,415.4,278z"/>
							<path fill="#CCCCCC" d="M426.6,302.3c0,0-10-11.2-11.1-12.7c-0.1-0.1-0.1-0.1-0.1-0.1c-0.3-0.6-2.9-4.3-1.8-8.5
								c0,0,0.3,4.8,3.2,7.6C416.7,288.6,429.3,301.3,426.6,302.3z"/>
						</g>
						<g>
							<path fill="#F2F2F2" d="M415.3,279.6c0,0,9.8,10.1,11.8,13.9c0,0,2.9,4.8-0.1,11.1c0,0-9.8-11.6-11.5-13.2
								C415.5,291.5,410.5,283.1,415.3,279.6z"/>
							<path fill="#CCCCCC" d="M426.5,304c0,0-10-11.2-11.1-12.7c-0.1-0.1-0.1-0.1-0.1-0.1c-0.3-0.6-2.9-4.3-1.8-8.5
								c0,0,0.3,4.8,3.2,7.6C416.6,290.2,429.2,303,426.5,304z"/>
							<path fill="#F2F2F2" d="M415.4,291.3c0,0,9.8,10.1,11.8,13.9c0,0,2.9,4.8-0.1,11.1c0,0-9.8-11.6-11.5-13.2
								C415.6,303.1,410.7,294.8,415.4,291.3z"/>
							<path fill="#CCCCCC" d="M426.6,315.7c0,0-10-11.2-11.1-12.7c-0.1-0.1-0.1-0.1-0.1-0.1c-0.3-0.6-2.9-4.3-1.8-8.5
								c0,0,0.3,4.8,3.2,7.6C416.7,301.9,429.3,314.7,426.6,315.7z"/>
						</g>
						<g>
							<path fill="#F2F2F2" d="M415.3,293c0,0,9.8,10.1,11.8,13.9c0,0,2.9,4.8-0.1,11.1c0,0-9.8-11.6-11.5-13.2
								C415.5,304.8,410.5,296.4,415.3,293z"/>
							<path fill="#CCCCCC" d="M426.5,317.3c0,0-10-11.2-11.1-12.7c-0.1-0.1-0.1-0.1-0.1-0.1c-0.3-0.6-2.9-4.3-1.8-8.5
								c0,0,0.3,4.8,3.2,7.6C416.6,303.6,429.2,316.3,426.5,317.3z"/>
							<path fill="#F2F2F2" d="M415.4,304.6c0,0,9.8,10.1,11.8,13.9c0,0,2.9,4.8-0.1,11.1c0,0-9.8-11.6-11.5-13.2
								C415.6,316.5,410.7,308.1,415.4,304.6z"/>
							<path fill="#CCCCCC" d="M426.6,329c0,0-10-11.2-11.1-12.7c-0.1-0.1-0.1-0.1-0.1-0.1c-0.3-0.6-2.9-4.3-1.8-8.5
								c0,0,0.3,4.8,3.2,7.6C416.7,315.2,429.3,328,426.6,329z"/>
						</g>
						<g>
							<path fill="#F2F2F2" d="M415.3,306.3c0,0,9.8,10.1,11.8,13.9c0,0,2.9,4.8-0.1,11.1c0,0-9.8-11.6-11.5-13.2
								C415.5,318.1,410.5,309.7,415.3,306.3z"/>
							<path fill="#CCCCCC" d="M426.5,330.6c0,0-10-11.2-11.1-12.7c-0.1-0.1-0.1-0.1-0.1-0.1c-0.3-0.6-2.9-4.3-1.8-8.5
								c0,0,0.3,4.8,3.2,7.6C416.6,316.9,429.2,329.6,426.5,330.6z"/>
							<path fill="#F2F2F2" d="M415.4,318c0,0,9.8,10.1,11.8,13.9c0,0,2.9,4.8-0.1,11.1c0,0-9.8-11.6-11.5-13.2
								C415.6,329.8,410.7,321.4,415.4,318z"/>
							<path fill="#CCCCCC" d="M426.6,342.3c0,0-10-11.2-11.1-12.7c-0.1-0.1-0.1-0.1-0.1-0.1c-0.3-0.6-2.9-4.3-1.8-8.5
								c0,0,0.3,4.8,3.2,7.6C416.7,328.6,429.3,341.3,426.6,342.3z"/>
						</g>
						<g>
							<path fill="#F2F2F2" d="M415.3,319.6c0,0,9.8,10.1,11.8,13.9c0,0,2.9,4.8-0.1,11.1c0,0-9.8-11.6-11.5-13.2
								C415.5,331.4,410.5,323,415.3,319.6z"/>
							<path fill="#CCCCCC" d="M426.5,343.9c0,0-10-11.2-11.1-12.7c-0.1-0.1-0.1-0.1-0.1-0.1c-0.3-0.6-2.9-4.3-1.8-8.5
								c0,0,0.3,4.8,3.2,7.6C416.6,330.2,429.2,342.9,426.5,343.9z"/>
							<path fill="#F2F2F2" d="M415.4,331.3c0,0,9.8,10.1,11.8,13.9c0,0,2.9,4.8-0.1,11.1c0,0-9.8-11.6-11.5-13.2
								C415.6,343.1,410.7,334.7,415.4,331.3z"/>
							<path fill="#CCCCCC" d="M426.6,355.6c0,0-10-11.2-11.1-12.7c-0.1-0.1-0.1-0.1-0.1-0.1c-0.3-0.6-2.9-4.3-1.8-8.5
								c0,0,0.3,4.8,3.2,7.6C416.7,341.9,429.3,354.6,426.6,355.6z"/>
						</g>
						<g>
							<path fill="#F2F2F2" d="M415.3,332.9c0,0,9.8,10.1,11.8,13.9c0,0,2.9,4.8-0.1,11.1c0,0-9.8-11.6-11.5-13.2
								C415.5,344.7,410.5,336.4,415.3,332.9z"/>
							<path fill="#CCCCCC" d="M426.5,357.3c0,0-10-11.2-11.1-12.7c-0.1-0.1-0.1-0.1-0.1-0.1c-0.3-0.6-2.9-4.3-1.8-8.5
								c0,0,0.3,4.8,3.2,7.6C416.6,343.5,429.2,356.3,426.5,357.3z"/>
							<path fill="#F2F2F2" d="M415.4,344.6c0,0,9.8,10.1,11.8,13.9c0,0,2.9,4.8-0.1,11.1c0,0-9.8-11.6-11.5-13.2
								C415.6,356.4,410.7,348,415.4,344.6z"/>
							<path fill="#CCCCCC" d="M426.6,368.9c0,0-10-11.2-11.1-12.7c-0.1-0.1-0.1-0.1-0.1-0.1c-0.3-0.6-2.9-4.3-1.8-8.5
								c0,0,0.3,4.8,3.2,7.6C416.7,355.2,429.3,368,426.6,368.9z"/>
						</g>
						<g>
							<path fill="#F2F2F2" d="M415.3,346.2c0,0,9.8,10.1,11.8,13.9c0,0,0.2,0.3,0.4,0.9c0.1,0.4,0.2,0.3,0.4,0.4c0.1,0,0.2,0,0.3,0
								c0.2,0,0.3,0,0.2,0.1l0,0l0.1,0.2c0.1,0.1,0.2,0.3,0.3,0.4c0.2,0.3,0.4,0.6,0.5,1c0.3,0.7,0.7,1.4,0.9,2.3
								c0,0-0.9-0.1-2.4-0.3c-0.7-0.1-1.6-0.2-2.5-0.3c-0.5-0.1-0.9,0-1.3,0c-0.4,0-0.9-0.1-1.3-0.2c-0.9-0.3-1.8-0.8-2.7-1.4
								c-0.4-0.3-0.8-0.7-1.1-1.2c-0.2-0.2-0.3-0.4-0.5-0.7c-0.2-0.2-0.3-0.3-0.4-0.5c-1.2-1.3-2.1-2.3-2.5-2.7
								C415.5,358.1,410.5,349.7,415.3,346.2z"/>
							<path fill="#CCCCCC" d="M429.4,365.2c0,0-0.9-0.1-2.4-0.2c-0.7-0.1-1.6-0.2-2.4-0.2c-0.8,0.1-1.6,0-2.5-0.4
								c-0.9-0.3-1.8-0.9-2.6-1.6c-0.8-0.7-1.4-1.8-1.9-2.3c-1.1-1.3-1.9-2.3-2.2-2.6c-0.1-0.1-0.1-0.1-0.1-0.1
								c-0.3-0.6-2.9-4.3-1.8-8.5c0,0,0.3,4.8,3.2,7.6c0,0,0.8,0.8,1.9,2c0.6,0.6,1.2,1.3,1.9,2.1c0.7,0.8,1.5,1.5,2.3,1.9
								c0.8,0.4,1.7,0.6,2.4,0.6c0.4,0,0.7,0,1-0.1c0.3,0,0.8,0.2,1.2,0.2C428.9,364.1,429.8,364.6,429.4,365.2z"/>
							<path fill="#F2F2F2" d="M415.4,357.9c0,0,0.6,0.6,1.6,1.6c0.5,0.5,1,1.1,1.6,1.8c0.6,0.8,1.4,1.6,2.3,2.2
								c0.9,0.6,1.8,0.9,2.7,1.1c0.4,0.1,0.9,0.1,1.3,0.1c0.4,0,1,0.1,1.4,0.1c1.9,0.3,3.5,0.6,4.5,0.9c0,0,5.5,1.5,7.5,8.2
								c0,0-15.1-1.8-17.4-1.8c0,0-0.6-0.2-1.4-0.5c-0.2-0.1-0.4-0.2-0.7-0.3l-0.4-0.2l-0.2-0.1l-0.3-0.2c-0.8-0.6-1.7-1.4-2.4-2.4
								c-1.5-1.9-2.3-4.8-2.1-7.1C413.6,360,414.2,358.8,415.4,357.9z"/>
							<path fill="#CCCCCC" d="M437.5,373.7c0,0-14.9-1.4-16.8-1.6c-0.1,0-0.1,0-0.2,0c-0.1,0-0.6-0.2-1.1-0.3
								c-0.3-0.1-0.6-0.2-0.9-0.3c-0.2-0.1-0.3-0.1-0.5-0.2c-0.3-0.2-0.6-0.4-0.8-0.6c-1.1-0.9-2.2-2.3-3-4.1
								c-0.4-0.9-0.6-1.8-0.7-2.8c-0.1-0.5-0.1-1-0.1-1.5c0-0.2,0-0.5,0.1-0.8c0-0.2,0.1-0.3,0.1-0.4c0,0,0,0.4,0.1,1.2
								c0.1,0.9,0.4,2.3,1.1,3.6c0.6,1.3,1.6,2.6,2.9,3.6c0.3,0.2,0.6,0.4,0.9,0.6l0.5,0.3c0.1,0.1,0.2,0.1,0.4,0.1
								c0.5,0.1,1,0.2,1.5,0.2C420.9,370.4,438.8,371.1,437.5,373.7z"/>
						</g>
						<g>
							<path fill="#F2F2F2" d="M413.7,364.9c0,0,14.1,0.7,18.1,2.1c0,0,5.5,1.5,7.5,8.2c0,0-15.1-1.8-17.4-1.8
								C422,373.3,412.6,370.6,413.7,364.9z"/>
							<path fill="#CCCCCC" d="M438.5,375c0,0-14.9-1.4-16.8-1.6c-0.1,0-0.1,0-0.2,0c-0.6-0.2-5.1-1.1-7.1-5c0,0,3.5,3.3,7.5,3.4
								C421.9,371.7,439.9,372.4,438.5,375z"/>
							<path fill="#F2F2F2" d="M421.8,373.3c0,0,14.1,0.7,18.1,2.1c0,0,5.5,1.5,7.5,8.2c0,0-15.1-1.8-17.4-1.8
								C430,381.8,420.7,379.1,421.8,373.3z"/>
							<path fill="#CCCCCC" d="M446.6,383.4c0,0-14.9-1.4-16.8-1.6c-0.1,0-0.1,0-0.2,0c-0.6-0.2-5.1-1.1-7.1-5c0,0,3.5,3.3,7.5,3.4
								C430,380.1,447.9,380.8,446.6,383.4z"/>
						</g>
						<g>
							<path fill="#F2F2F2" d="M422.8,374.6c0,0,14.1,0.7,18.1,2.1c0,0,5.5,1.5,7.5,8.2c0,0-15.1-1.8-17.4-1.8
								C431.1,383.1,421.7,380.3,422.8,374.6z"/>
							<path fill="#CCCCCC" d="M447.6,384.7c0,0-14.9-1.4-16.8-1.6c-0.1,0-0.1,0-0.2,0c-0.6-0.2-5.1-1.1-7.1-5c0,0,3.5,3.3,7.5,3.4
								C431.1,381.4,449,382.1,447.6,384.7z"/>
							<path fill="#F2F2F2" d="M430.9,383c0,0,14.1,0.7,18.1,2.1c0,0,5.5,1.5,7.5,8.2c0,0-15.1-1.8-17.4-1.8
								C439.1,391.5,429.8,388.8,430.9,383z"/>
							<path fill="#CCCCCC" d="M455.7,393.1c0,0-14.9-1.4-16.8-1.6c-0.1,0-0.1,0-0.2,0c-0.6-0.2-5.1-1.1-7.1-5c0,0,3.5,3.3,7.5,3.4
								C439.1,389.9,457,390.5,455.7,393.1z"/>
						</g>
						<g>
							<path fill="#F2F2F2" d="M431.9,384.3c0,0,14.1,0.7,18.1,2.1c0,0,5.5,1.5,7.5,8.2c0,0-15.1-1.8-17.4-1.8
								C440.2,392.8,430.8,390.1,431.9,384.3z"/>
							<path fill="#CCCCCC" d="M456.8,394.4c0,0-14.9-1.4-16.8-1.6c-0.1,0-0.1,0-0.2,0c-0.6-0.2-5.1-1.1-7.1-5c0,0,3.5,3.3,7.5,3.4
								C440.2,391.1,458.1,391.8,456.8,394.4z"/>
							<path fill="#F2F2F2" d="M440,392.8c0,0,14.1,0.7,18.1,2.1c0,0,5.5,1.5,7.5,8.2c0,0-15.1-1.8-17.4-1.8
								C448.2,401.2,438.9,398.5,440,392.8z"/>
							<path fill="#CCCCCC" d="M464.8,402.9c0,0-14.9-1.4-16.8-1.6c-0.1,0-0.1,0-0.2,0c-0.6-0.2-5.1-1.1-7.1-5c0,0,3.5,3.3,7.5,3.4
								C448.2,399.6,466.1,400.3,464.8,402.9z"/>
						</g>
						<g>
							<path fill="#F2F2F2" d="M441,394c0,0,14.1,0.7,18.1,2.1c0,0,5.5,1.5,7.5,8.2c0,0-15.1-1.8-17.4-1.8
								C449.3,402.5,439.9,399.8,441,394z"/>
							<path fill="#CCCCCC" d="M465.9,404.1c0,0-14.9-1.4-16.8-1.6c-0.1,0-0.1,0-0.2,0c-0.6-0.2-5.1-1.1-7.1-5c0,0,3.5,3.3,7.5,3.4
								C449.3,400.9,467.2,401.5,465.9,404.1z"/>
							<path fill="#F2F2F2" d="M449.1,402.5c0,0,14.1,0.7,18.1,2.1c0,0,5.5,1.5,7.5,8.2c0,0-15.1-1.8-17.4-1.8
								C457.3,411,448,408.2,449.1,402.5z"/>
							<path fill="#CCCCCC" d="M473.9,412.6c0,0-14.9-1.4-16.8-1.6c-0.1,0-0.1,0-0.2,0c-0.6-0.2-5.1-1.1-7.1-5c0,0,3.5,3.3,7.5,3.4
								C457.3,409.3,475.2,410,473.9,412.6z"/>
						</g>
						<g>
							<path fill="#F2F2F2" d="M450.1,403.8c0,0,14.1,0.7,18.1,2.1c0,0,5.5,1.5,7.5,8.2c0,0-15.1-1.8-17.4-1.8
								C458.4,412.2,449,409.5,450.1,403.8z"/>
							<path fill="#CCCCCC" d="M475,413.9c0,0-14.9-1.4-16.8-1.6c-0.1,0-0.1,0-0.2,0c-0.6-0.2-5.1-1.1-7.1-5c0,0,3.5,3.3,7.5,3.4
								C458.4,410.6,476.3,411.3,475,413.9z"/>
							<path fill="#F2F2F2" d="M458.2,412.2c0,0,14.1,0.7,18.1,2.1c0,0,5.5,1.5,7.5,8.2c0,0-15.1-1.8-17.4-1.8
								C466.5,420.7,457.1,418,458.2,412.2z"/>
							<path fill="#CCCCCC" d="M483,422.3c0,0-14.9-1.4-16.8-1.6c-0.1,0-0.1,0-0.2,0c-0.6-0.2-5.1-1.1-7.1-5c0,0,3.5,3.3,7.5,3.4
								C466.4,419,484.3,419.7,483,422.3z"/>
						</g>
						<g>
							<path fill="#F2F2F2" d="M459.2,413.5c0,0,14.1,0.7,18.1,2.1c0,0,5.5,1.5,7.5,8.2c0,0-15.1-1.8-17.4-1.8
								C467.5,422,458.1,419.2,459.2,413.5z"/>
							<path fill="#CCCCCC" d="M484.1,423.6c0,0-14.9-1.4-16.8-1.6c-0.1,0-0.1,0-0.2,0c-0.6-0.2-5.1-1.1-7.1-5c0,0,3.5,3.3,7.5,3.4
								C467.5,420.3,485.4,421,484.1,423.6z"/>
							<path fill="#F2F2F2" d="M467.3,421.9c0,0,14.1,0.7,18.1,2.1c0,0,5.5,1.5,7.5,8.2c0,0-15.1-1.8-17.4-1.8
								C475.6,430.4,466.2,427.7,467.3,421.9z"/>
							<path fill="#CCCCCC" d="M492.1,432c0,0-14.9-1.4-16.8-1.6c-0.1,0-0.1,0-0.2,0c-0.6-0.2-5.1-1.1-7.1-5c0,0,3.5,3.3,7.5,3.4
								C475.6,428.8,493.5,429.4,492.1,432z"/>
						</g>
						<g>
							<path fill="#F2F2F2" d="M468.4,423.2c0,0,14.1,0.7,18.1,2.1c0,0,5.5,1.5,7.5,8.2c0,0-15.1-1.8-17.4-1.8
								C476.6,431.7,467.2,429,468.4,423.2z"/>
							<path fill="#CCCCCC" d="M493.2,433.3c0,0-14.9-1.4-16.8-1.6c-0.1,0-0.1,0-0.2,0c-0.6-0.2-5.1-1.1-7.1-5c0,0,3.5,3.3,7.5,3.4
								C476.6,430,494.5,430.7,493.2,433.3z"/>
							<path fill="#F2F2F2" d="M476.4,431.7c0,0,14.1,0.7,18.1,2.1c0,0,5.5,1.5,7.5,8.2c0,0-15.1-1.8-17.4-1.8
								C484.7,440.1,475.3,437.4,476.4,431.7z"/>
							<path fill="#CCCCCC" d="M501.2,441.7c0,0-14.9-1.4-16.8-1.6c-0.1,0-0.1,0-0.2,0c-0.6-0.2-5.1-1.1-7.1-5c0,0,3.5,3.3,7.5,3.4
								C484.7,438.5,502.6,439.2,501.2,441.7z"/>
						</g>
						<g>
							<path fill="#F2F2F2" d="M477.5,432.9c0,0,14.1,0.7,18.1,2.1c0,0,5.5,1.5,7.5,8.2c0,0-15.1-1.8-17.4-1.8
								C485.7,441.4,476.3,438.7,477.5,432.9z"/>
							<path fill="#CCCCCC" d="M502.3,443c0,0-14.9-1.4-16.8-1.6c-0.1,0-0.1,0-0.2,0c-0.6-0.2-5.1-1.1-7.1-5c0,0,3.5,3.3,7.5,3.4
								C485.7,439.8,503.6,440.4,502.3,443z"/>
							<path fill="#F2F2F2" d="M485.5,441.4c0,0,14.1,0.7,18.1,2.1c0,0,5.5,1.5,7.5,8.2c0,0-15.1-1.8-17.4-1.8
								C493.8,449.9,484.4,447.1,485.5,441.4z"/>
							<path fill="#CCCCCC" d="M510.4,451.5c0,0-14.9-1.4-16.8-1.6c-0.1,0-0.1,0-0.2,0c-0.6-0.2-5.1-1.1-7.1-5c0,0,3.5,3.3,7.5,3.4
								C493.8,448.2,511.7,448.9,510.4,451.5z"/>
						</g>
						<g>
							<path fill="#F2F2F2" d="M486.6,442.7c0,0,14.1,0.7,18.1,2.1c0,0,1.4,0.4,3,1.6c0.8,0.6,1.7,1.4,2.5,2.5
								c0.4,0.5,0.8,1.1,1.1,1.8l0.1,0.3l0,0.1l-0.1,0.2c0,0.1-0.1,0.3-0.1,0.5c0,0-0.4,0.5-1.4,0.9c-1.3,0-3.4-0.3-5.4-0.5
								c-4.1-0.4-8.4-0.9-9.6-0.9C494.8,451.1,485.4,448.4,486.6,442.7z"/>
							<path fill="#CCCCCC" d="M510.8,452c0,0-0.1,0.1-0.4,0.3c-0.3,0.1-0.5,0.4-1.3,0.3c-1.4-0.1-3.4-0.3-5.3-0.5
								c-4-0.4-8.2-0.8-9.1-0.9c-0.1,0-0.1,0-0.2,0c-0.6-0.2-5.1-1.1-7.1-5c0,0,3.5,3.3,7.5,3.4c0,0,4.5,0.2,8.8,0.7
								c2.2,0.2,4.3,0.6,5.8,1C511.1,451.8,511,451.4,510.8,452z"/>
							<path fill="#F2F2F2" d="M494.6,451.1c0,0,3.5,0.2,7.5,0.5c2,0.2,4.1,0.4,6,0.6c0.5,0.1,0.9,0.1,1.4,0.2
								c0.4,0,0.6-0.2,0.8-0.2c0.5-0.2,0.8-0.5,0.9-0.7c0,0,0.5-0.6,0.6-0.9c0.1-0.2,0-0.3,0.1-0.1c0,0.1,0.1,0.2,0.3,0.3
								c0.1,0.1,0.2,0.1,0.3,0.2c0.2,0,0.7-0.3,1.1-0.4c0,0,0,0.2,0,0.7c0,0.2-0.1,0.5,0,0.7c0.1,0.2,0.2,0.4,0.2,0.7
								c0.3,1,0.3,2.6-0.8,4.2c-1,1.6-3.1,2.8-5.2,3.2c-2.1,0.4-4,0-4.8-0.2c-0.4-0.3-2.6-0.9-4.8-2.3
								C496.1,456.1,494.1,454,494.6,451.1z"/>
							<path fill="#CCCCCC" d="M513.7,451.4c0,0-0.1,0.3,0,0.6c0.1,0.3,0.3,0.7,0.4,1.2c0.2,1,0,2.7-1.3,4.2
								c-1.2,1.5-3.3,2.6-5.4,2.8c-2.1,0.3-3.9-0.2-4.5-0.5c-0.1,0-0.2-0.1-0.2-0.1c-0.3-0.2-0.7-0.3-1.2-0.4
								c-0.5-0.2-1.2-0.4-2-0.8c-1.5-0.7-3.1-1.9-4.1-3.9c0,0,3.5,3.3,7.5,3.4c0,0,0.3,0,0.8,0c0.5,0,1.4,0.3,2.4,0.3
								c1.9,0.1,4.3-0.7,5.6-2c1.4-1.3,1.7-3,1.6-3.8c0-0.4-0.1-0.7-0.1-0.9c0-0.1,0-0.1,0.1-0.1
								C513.4,451.4,513.5,451.4,513.7,451.4z"/>
						</g>
						<g>
							<path fill="#F2F2F2" d="M495.7,452.4c0,0,3.5,0.2,7.5,0.5c1,0.1,2,0.2,3.1,0.3c0.5,0.1,1,0.1,1.5,0.2c0.5,0.1,1,0.1,1.3,0
								c1.4-0.3,2.2-1.2,2.5-1.6c0,0,0.4-0.7,0.5-1c0-0.2,0-0.3,0.1-0.1c0,0,0.1,0.1,0.1,0.1c0.1,0,0.1,0.2,0.5-0.1
								c0.7-0.4,1.4-0.8,2.2-1.1c0,0,0,0.9-0.1,2.4c0,0.3-0.1,0.8,0,1.1c0.1,0.3,0.2,0.7,0.2,1c0.1,0.8-0.1,1.6-0.5,2.5
								c-0.7,1.8-2.5,3.4-4.5,4.2c-2,0.8-4,0.8-4.8,0.8c0,0-0.9-0.1-2.3-0.8c-0.3-0.2-0.7-0.4-1.1-0.6c-0.4-0.2-0.5-0.3-0.8-0.4
								c-0.5-0.3-1.1-0.6-1.6-0.9C497.2,457.4,495.1,455.3,495.7,452.4z"/>
							<path fill="#CCCCCC" d="M514.9,450.3c0,0,0,0.9-0.1,2.4c0,0.7,0.3,1.2,0.2,2c0,0.7-0.2,1.6-0.7,2.5c-0.9,1.7-2.8,3.2-4.8,3.9
								c-2,0.7-3.9,0.6-4.6,0.5c-0.1,0-0.2,0-0.3,0c-0.3-0.1-0.8-0.2-1.7-0.6c-0.4-0.2-0.9-0.4-1.4-0.8c-0.3-0.1-0.7-0.3-1.1-0.5
								c-1.5-0.7-3.1-1.9-4.1-3.9c0,0,0.9,0.8,2.3,1.7c0.7,0.4,1.5,0.8,2.4,1.2c0.4,0.2,0.9,0.3,1.4,0.4c0.5,0.1,1.3,0.4,1.9,0.5
								c0,0,0.4,0,1,0.1c0.6,0,1.5,0,2.4-0.2c1.9-0.3,4.1-1.5,5.1-3.1c1.1-1.6,1.1-3.3,0.8-4.1c-0.2-0.3,0.2-1.1,0.3-1.4
								C514.3,450.3,514.5,450.2,514.9,450.3z"/>
							<path fill="#F2F2F2" d="M505,461.5c0,0,1.3,0.1,3-0.2c1.8-0.4,3.9-1.4,5.2-3c1.4-1.6,1.8-3.5,1.5-5l-0.1-0.5
								c0-0.2,0-0.5,0.1-0.7c0-0.4,0.1-0.9,0.1-1.2c0.1-0.8,0.2-1.5,0.3-2c0,0,1.2-5.5,7.7-8.1c0,0-0.8,15.2-0.6,17.5
								c0,0,0,0.2-0.1,0.4c0,0.1-0.1,0.3-0.1,0.5c-0.1,0.2-0.1,0.3-0.3,0.7c-0.7,1.3-2.2,3.1-4.3,4.2c-2.1,1.2-4.9,1.7-7.4,1.2
								C507.5,464.8,505.6,463.3,505,461.5z"/>
							<path fill="#CCCCCC" d="M522.8,441.7c0,0-0.4,15-0.5,16.9c0,0.1,0,0.1,0,0.2c-0.1,0.2,0,0.5-0.3,1.2
								c-0.4,0.8-1.1,1.9-2.2,2.9c-2.1,2.1-6.3,3.6-10.3,2.3c0,0,0.6,0.1,1.5,0.1c0.9,0,2.3-0.1,3.7-0.6c1.4-0.5,2.8-1.3,3.9-2.4
								c1.1-1.1,1.8-2.4,2-3.7c0.1,0,0-1.1,0-2.8c0-1.7,0-3.9,0.1-6C520.9,445.3,521.4,441.1,522.8,441.7z"/>
						</g>
						<g>
							<path fill="#F2F2F2" d="M512.6,465.1c0,0,2.7-13.1,3.8-17.2c0,0,1.2-5.5,7.7-8.1c0,0-0.8,15.2-0.6,17.5
								C523.5,457.3,518.4,465.8,512.6,465.1z"/>
							<path fill="#CCCCCC" d="M524,440.6c0,0-0.4,15-0.5,16.9c0,0.1,0,0.1,0,0.2c-0.2,0.6-3.6,4.9-7.4,7.2c0,0,5.9-3.5,5.7-7.4
								C521.8,457.4,521.3,439.5,524,440.6z"/>
							<path fill="#F2F2F2" d="M523.4,457.4c0,0-0.2-14.1,0.9-18.2c0,0,1.2-5.5,7.7-8.1c0,0-0.8,15.2-0.6,17.5
								C531.4,448.6,529.2,458.2,523.4,457.4z"/>
							<path fill="#CCCCCC" d="M531.9,432c0,0-0.4,15-0.5,16.9c0,0.1,0,0.1,0,0.2c-0.2,0.6-0.8,5.2-4.5,7.5c0,0,3-3.7,2.9-7.7
								C529.7,448.8,529.2,430.9,531.9,432z"/>
						</g>
						<g>
							<path fill="#F2F2F2" d="M524.6,456.3c0,0-0.2-14.1,0.9-18.2c0,0,1.2-5.5,7.7-8.1c0,0-0.8,15.2-0.6,17.5
								C532.6,447.5,530.5,457.1,524.6,456.3z"/>
							<path fill="#CCCCCC" d="M533.1,430.9c0,0-0.4,15-0.5,16.9c0,0.1,0,0.1,0,0.2c-0.2,0.6-0.8,5.2-4.5,7.5c0,0,3-3.7,2.9-7.7
								C530.9,447.7,530.4,429.7,533.1,430.9z"/>
							<path fill="#F2F2F2" d="M532.5,447.7c0,0-0.2-14.1,0.9-18.2c0,0,1.2-5.5,7.7-8.1c0,0-0.8,15.2-0.6,17.5
								C540.5,438.9,538.4,448.4,532.5,447.7z"/>
							<path fill="#CCCCCC" d="M541,422.3c0,0-0.4,15-0.5,16.9c0,0.1,0,0.1,0,0.2c-0.2,0.6-0.8,5.2-4.5,7.5c0,0,3-3.7,2.9-7.7
								C538.8,439,538.3,421.1,541,422.3z"/>
						</g>
						<g>
							<path fill="#F2F2F2" d="M533.8,446.6c0,0-0.2-14.1,0.9-18.2c0,0,1.2-5.5,7.7-8.1c0,0-0.8,15.2-0.6,17.5
								C541.7,437.8,539.6,447.3,533.8,446.6z"/>
							<path fill="#CCCCCC" d="M542.2,421.2c0,0-0.4,15-0.5,16.9c0,0.1,0,0.1,0,0.2c-0.2,0.6-0.8,5.2-4.5,7.5c0,0,3-3.7,2.9-7.7
								C540,437.9,539.5,420,542.2,421.2z"/>
							<path fill="#F2F2F2" d="M541.7,438c0,0-0.2-14.1,0.9-18.2c0,0,1.2-5.5,7.7-8.1c0,0-0.8,15.2-0.6,17.5
								C549.6,429.2,547.5,438.7,541.7,438z"/>
							<path fill="#CCCCCC" d="M550.1,412.6c0,0-0.4,15-0.5,16.9c0,0.1,0,0.1,0,0.2c-0.2,0.6-0.8,5.2-4.5,7.5c0,0,3-3.7,2.9-7.7
								C547.9,429.3,547.4,411.4,550.1,412.6z"/>
						</g>
						<g>
							<path fill="#F2F2F2" d="M542.9,436.9c0,0-0.2-14.1,0.9-18.2c0,0,1.2-5.5,7.7-8.1c0,0-0.8,15.2-0.6,17.5
								C550.8,428.1,548.7,437.6,542.9,436.9z"/>
							<path fill="#CCCCCC" d="M551.3,411.4c0,0-0.4,15-0.5,16.9c0,0.1,0,0.1,0,0.2c-0.2,0.6-0.8,5.2-4.5,7.5c0,0,3-3.7,2.9-7.7
								C549.1,428.2,548.6,410.3,551.3,411.4z"/>
							<path fill="#F2F2F2" d="M550.8,428.3c0,0-0.2-14.1,0.9-18.2c0,0,1.2-5.5,7.7-8.1c0,0-0.8,15.2-0.6,17.5
								C558.7,419.5,556.6,429,550.8,428.3z"/>
							<path fill="#CCCCCC" d="M559.2,402.8c0,0-0.4,15-0.5,16.9c0,0.1,0,0.1,0,0.2c-0.2,0.6-0.8,5.2-4.5,7.5c0,0,3-3.7,2.9-7.7
								C557,419.6,556.5,401.7,559.2,402.8z"/>
						</g>
						<g>
							<path fill="#F2F2F2" d="M552,427.1c0,0-0.2-14.1,0.9-18.2c0,0,1.2-5.5,7.7-8.1c0,0-0.8,15.2-0.6,17.5
								C559.9,418.4,557.8,427.9,552,427.1z"/>
							<path fill="#CCCCCC" d="M560.4,401.7c0,0-0.4,15-0.5,16.9c0,0.1,0,0.1,0,0.2c-0.2,0.6-0.8,5.2-4.5,7.5c0,0,3-3.7,2.9-7.7
								C558.2,418.5,557.7,400.6,560.4,401.7z"/>
							<path fill="#F2F2F2" d="M559.9,418.5c0,0-0.2-14.1,0.9-18.2c0,0,1.2-5.5,7.7-8.1c0,0-0.8,15.2-0.6,17.5
								C567.8,409.8,565.7,419.3,559.9,418.5z"/>
							<path fill="#CCCCCC" d="M568.3,393.1c0,0-0.4,15-0.5,16.9c0,0.1,0,0.1,0,0.2c-0.2,0.6-0.8,5.2-4.5,7.5c0,0,3-3.7,2.9-7.7
								C566.1,409.9,565.6,392,568.3,393.1z"/>
						</g>
						<g>
							<path fill="#F2F2F2" d="M561.1,417.4c0,0-0.2-14.1,0.9-18.2c0,0,1.2-5.5,7.7-8.1c0,0-0.8,15.2-0.6,17.5
								C569,408.6,566.9,418.2,561.1,417.4z"/>
							<path fill="#CCCCCC" d="M569.5,392c0,0-0.4,15-0.5,16.9c0,0.1,0,0.1,0,0.2c-0.2,0.6-0.8,5.2-4.5,7.5c0,0,3-3.7,2.9-7.7
								C567.3,408.8,566.8,390.9,569.5,392z"/>
							<path fill="#F2F2F2" d="M569,408.8c0,0-0.2-14.1,0.9-18.2c0,0,1.2-5.5,7.7-8.1c0,0-0.8,15.2-0.6,17.5
								C576.9,400,574.8,409.6,569,408.8z"/>
							<path fill="#CCCCCC" d="M577.4,383.4c0,0-0.4,15-0.5,16.9c0,0.1,0,0.1,0,0.2c-0.2,0.6-0.8,5.2-4.5,7.5c0,0,3-3.7,2.9-7.7
								C575.2,400.2,574.7,382.2,577.4,383.4z"/>
						</g>
						<g>
							<path fill="#F2F2F2" d="M570.2,407.7c0,0-0.2-14.1,0.9-18.2c0,0,1.2-5.5,7.7-8.1c0,0-0.8,15.2-0.6,17.5
								C578.1,398.9,576,408.4,570.2,407.7z"/>
							<path fill="#CCCCCC" d="M578.6,382.3c0,0-0.4,15-0.5,16.9c0,0.1,0,0.1,0,0.2c-0.2,0.6-0.8,5.2-4.5,7.5c0,0,3-3.7,2.9-7.7
								C576.4,399,576,381.1,578.6,382.3z"/>
							<path fill="#F2F2F2" d="M578.1,399.1c0,0-0.2-14.1,0.9-18.2c0,0,1.2-5.5,7.7-8.1c0,0-0.8,15.2-0.6,17.5
								C586,390.3,583.9,399.8,578.1,399.1z"/>
							<path fill="#CCCCCC" d="M586.5,373.7c0,0-0.4,15-0.5,16.9c0,0.1,0,0.1,0,0.2c-0.2,0.6-0.8,5.2-4.5,7.5c0,0,3-3.7,2.9-7.7
								C584.3,390.4,583.9,372.5,586.5,373.7z"/>
						</g>
						<g>
							<path fill="#F2F2F2" d="M579.3,398c0,0-0.2-14.1,0.9-18.2c0,0,1.2-5.5,7.7-8.1c0,0-0.8,15.2-0.6,17.5
								C587.2,389.2,585.1,398.7,579.3,398z"/>
							<path fill="#CCCCCC" d="M587.7,372.5c0,0-0.4,15-0.5,16.9c0,0.1,0,0.1,0,0.2c-0.2,0.6-0.8,5.2-4.5,7.5c0,0,3-3.7,2.9-7.7
								C585.5,389.3,585.1,371.4,587.7,372.5z"/>
							<path fill="#F2F2F2" d="M587.2,389.4c0,0-0.2-14.1,0.9-18.2c0,0,1.2-5.5,7.7-8.1c0,0-0.8,15.2-0.6,17.5
								C595.1,380.6,593,390.1,587.2,389.4z"/>
							<path fill="#CCCCCC" d="M595.6,363.9c0,0-0.4,15-0.5,16.9c0,0.1,0,0.1,0,0.2c-0.2,0.6-0.8,5.2-4.5,7.5c0,0,3-3.7,2.9-7.7
								C593.4,380.7,593,362.8,595.6,363.9z"/>
						</g>
						<g>
							<path fill="#F2F2F2" d="M588.4,388.2c0,0-0.2-14.1,0.9-18.2c0,0,0.3-1.4,1.4-3.1c0.6-0.9,1.3-1.8,2.3-2.7
								c0.5-0.4,1.1-0.9,1.7-1.3c0.3-0.2,0.7-0.4,1-0.6c0.2-0.1,0.4-0.2,0.6-0.3c0.1,0,0.2,0,0.3,0.1c0,0,0.1,0.1,0.2,0.4
								c0,0.4,0,1-0.1,1.7c-0.1,1.5-0.2,3.4-0.3,5.5c-0.2,4.1-0.3,8.5-0.2,9.6C596.3,379.5,594.2,389,588.4,388.2z"/>
							<path fill="#CCCCCC" d="M596.8,362.8c0,0-0.4,15-0.5,16.9c0,0.1,0,0.1,0,0.2c-0.2,0.6-0.8,5.2-4.5,7.5c0,0,3-3.7,2.9-7.7
								C594.7,379.6,594.2,361.7,596.8,362.8z"/>
							<path fill="#F2F2F2" d="M596.3,379.6c0,0-0.1-3.5,0-7.6c0-2,0.1-4.2,0.2-6.1c0.1-1.8,0.6-3.8,0-3.9c0,0-0.5-0.6-0.8-0.7
								c-0.1-0.1-0.1,0-0.2-0.2c0-0.6,0-1.2,0.1-1.9c0.2-1.3,0.5-2.8,1.3-4.4c0,0,2.5,2.9,5.1,6c1.4,1.3,2.4,3.5,2.5,5.6
								c0.1,1.1-0.1,2.1-0.2,2.9c0,0.7,0,1.1,0,1.4C604.2,370.9,602.1,380.4,596.3,379.6z"/>
							<path fill="#CCCCCC" d="M597.4,355.6c0,0,2.5,2.8,5.1,5.8c1.3,1.4,2.1,3.6,2.1,5.7c0,1-0.3,2.1-0.3,2.7c0,0.6-0.1,1-0.1,1.3
								c0,0.1,0,0.1,0,0.2c-0.2,0.6-0.8,5.2-4.5,7.5c0,0,3-3.7,2.9-7.7c0,0,0-1.1,0-2.8c0.2-1.8-0.1-4.3-1.3-5.8
								c-1.2-1.1-2.7-3-3.4-4.3C597,356.8,596.7,355.8,597.4,355.6z"/>
						</g>
						<g>
							<path fill="#F2F2F2" d="M597.5,378.5c0,0-0.1-3.5,0-7.6c0-2,0.1-4.2,0.2-6.1c0-0.5,0.1-1,0.1-1.4c-0.1-0.3-0.2-0.6-0.3-0.8
								c-0.3-0.4-0.5-0.7-0.7-0.9c0,0-0.6-0.4-1-0.7c-0.4-2-0.3-4.8,1.2-7.9c0,0,2.5,2.9,5.1,6c0.7,0.8,1.4,1.5,2,2.4
								c0.6,0.9,1.1,1.9,1.4,2.9c0.6,2.1,0.3,4,0.2,4.8c0.1-0.1-0.5,1.1-0.7,1.8c-0.3,0.9-0.7,2-1.4,3.2
								C602.4,376.7,600.4,378.9,597.5,378.5z"/>
							<path fill="#CCCCCC" d="M597.5,353.9c0,0,2.5,2.8,5.1,5.8c0.6,0.8,1.4,1.4,1.9,2.4c0.6,0.9,1,2,1.2,3
								c0.4,2.1,0.1,3.9-0.1,4.6c0,0.1-0.1,0.2-0.1,0.3c0,0.1-0.1,0.3-0.3,0.6c0,0.2-0.1,0.4-0.2,0.7c-0.1,0.5-0.4,1.2-0.7,2
								c-0.6,1.5-1.7,3.2-3.6,4.4c0,0,3-3.7,2.9-7.7c0,0,0-0.3,0-0.8c0.1-0.6,0.2-1.5,0.1-2.4c-0.1-2-1-4.2-2.5-5.5
								C598.6,357.9,596.1,354.4,597.5,353.9z"/>
							<path fill="#F2F2F2" d="M605.6,369.6c0,0,0.3-1.3,0.1-3c-0.1-1.8-0.9-4-2.3-5.5c-2.7-3-5.7-6.5-6.7-8.3c0,0-2.9-4.8,0.1-11.1
								c0,0,9.8,11.6,11.5,13.2c0,0,1.2,2.1,1.9,4.6c0.2,0.7,0.3,1.2,0.3,2c0,1.3-0.1,2.6-0.6,3.8
								C609.2,367.5,607.5,369.3,605.6,369.6z"/>
							<path fill="#CCCCCC" d="M597.4,342.3c0,0,10,11.2,11.1,12.7c0.1,0.1,0.1,0.1,0.1,0.1c0.1,0.3,0.9,1.4,1.4,2.9
								c0.3,0.8,0.5,1.7,0.6,2.6c0,0.2,0,0.5,0,0.8c0,0.5,0,1-0.1,1.5c-0.1,1-0.4,2-0.9,2.9c0,0,0.2-0.6,0.3-1.5
								c0.1-0.5,0.1-1,0.1-1.7c0-0.6-0.1-1.4-0.2-1.7c-0.4-1.6-1.2-3.5-2.6-4.9C607.3,356,594.7,343.3,597.4,342.3z"/>
						</g>
						<g>
							<path fill="#F2F2F2" d="M608.7,365c0,0-9.8-10.1-11.8-13.9c0,0-2.9-4.8,0.1-11.1c0,0,9.8,11.6,11.5,13.2
								C608.5,353.1,613.5,361.5,608.7,365z"/>
							<path fill="#CCCCCC" d="M597.5,340.6c0,0,10,11.2,11.1,12.7c0.1,0.1,0.1,0.1,0.1,0.1c0.3,0.6,2.9,4.3,1.8,8.5
								c0,0-0.3-4.8-3.2-7.6C607.4,354.4,594.8,341.6,597.5,340.6z"/>
							<path fill="#F2F2F2" d="M608.6,353.3c0,0-9.8-10.1-11.8-13.9c0,0-2.9-4.8,0.1-11.1c0,0,9.8,11.6,11.5,13.2
								C608.4,341.5,613.3,349.8,608.6,353.3z"/>
							<path fill="#CCCCCC" d="M597.4,328.9c0,0,10,11.2,11.1,12.7c0.1,0.1,0.1,0.1,0.1,0.1c0.3,0.6,2.9,4.3,1.8,8.5
								c0,0-0.3-4.8-3.2-7.6C607.3,342.7,594.7,329.9,597.4,328.9z"/>
						</g>
						<g>
							<path fill="#F2F2F2" d="M608.7,351.6c0,0-9.8-10.1-11.8-13.9c0,0-2.9-4.8,0.1-11.1c0,0,9.8,11.6,11.5,13.2
								C608.5,339.8,613.5,348.2,608.7,351.6z"/>
							<path fill="#CCCCCC" d="M597.5,327.3c0,0,10,11.2,11.1,12.7c0.1,0.1,0.1,0.1,0.1,0.1c0.3,0.6,2.9,4.3,1.8,8.5
								c0,0-0.3-4.8-3.2-7.6C607.4,341,594.8,328.3,597.5,327.3z"/>
							<path fill="#F2F2F2" d="M608.6,339.9c0,0-9.8-10.1-11.8-13.9c0,0-2.9-4.8,0.1-11.1c0,0,9.8,11.6,11.5,13.2
								C608.4,328.1,613.3,336.5,608.6,339.9z"/>
							<path fill="#CCCCCC" d="M597.4,315.6c0,0,10,11.2,11.1,12.7c0.1,0.1,0.1,0.1,0.1,0.1c0.3,0.6,2.9,4.3,1.8,8.5
								c0,0-0.3-4.8-3.2-7.6C607.3,329.3,594.7,316.6,597.4,315.6z"/>
						</g>
						<g>
							<path fill="#F2F2F2" d="M608.7,338.3c0,0-9.8-10.1-11.8-13.9c0,0-2.9-4.8,0.1-11.1c0,0,9.8,11.6,11.5,13.2
								C608.5,326.5,613.5,334.9,608.7,338.3z"/>
							<path fill="#CCCCCC" d="M597.5,314c0,0,10,11.2,11.1,12.7c0.1,0.1,0.1,0.1,0.1,0.1c0.3,0.6,2.9,4.3,1.8,8.5
								c0,0-0.3-4.8-3.2-7.6C607.4,327.7,594.8,315,597.5,314z"/>
							<path fill="#F2F2F2" d="M608.6,326.6c0,0-9.8-10.1-11.8-13.9c0,0-2.9-4.8,0.1-11.1c0,0,9.8,11.6,11.5,13.2
								C608.4,314.8,613.3,323.2,608.6,326.6z"/>
							<path fill="#CCCCCC" d="M597.4,302.3c0,0,10,11.2,11.1,12.7c0.1,0.1,0.1,0.1,0.1,0.1c0.3,0.6,2.9,4.3,1.8,8.5
								c0,0-0.3-4.8-3.2-7.6C607.3,316,594.7,303.3,597.4,302.3z"/>
						</g>
						<g>
							<path fill="#F2F2F2" d="M608.7,325c0,0-9.8-10.1-11.8-13.9c0,0-2.9-4.8,0.1-11.1c0,0,9.8,11.6,11.5,13.2
								C608.5,313.2,613.5,321.6,608.7,325z"/>
							<path fill="#CCCCCC" d="M597.5,300.7c0,0,10,11.2,11.1,12.7c0.1,0.1,0.1,0.1,0.1,0.1c0.3,0.6,2.9,4.3,1.8,8.5
								c0,0-0.3-4.8-3.2-7.6C607.4,314.4,594.8,301.7,597.5,300.7z"/>
							<path fill="#F2F2F2" d="M608.6,313.3c0,0-9.8-10.1-11.8-13.9c0,0-2.9-4.8,0.1-11.1c0,0,9.8,11.6,11.5,13.2
								C608.4,301.5,613.3,309.9,608.6,313.3z"/>
							<path fill="#CCCCCC" d="M597.4,289c0,0,10,11.2,11.1,12.7c0.1,0.1,0.1,0.1,0.1,0.1c0.3,0.6,2.9,4.3,1.8,8.5
								c0,0-0.3-4.8-3.2-7.6C607.3,302.7,594.7,290,597.4,289z"/>
						</g>
						<g>
							<path fill="#F2F2F2" d="M608.7,311.7c0,0-9.8-10.1-11.8-13.9c0,0-2.9-4.8,0.1-11.1c0,0,9.8,11.6,11.5,13.2
								C608.5,299.9,613.5,308.2,608.7,311.7z"/>
							<path fill="#CCCCCC" d="M597.5,287.3c0,0,10,11.2,11.1,12.7c0.1,0.1,0.1,0.1,0.1,0.1c0.3,0.6,2.9,4.3,1.8,8.5
								c0,0-0.3-4.8-3.2-7.6C607.4,301.1,594.8,288.3,597.5,287.3z"/>
							<path fill="#F2F2F2" d="M608.6,300c0,0-9.8-10.1-11.8-13.9c0,0-2.9-4.8,0.1-11.1c0,0,9.8,11.6,11.5,13.2
								C608.4,288.2,613.3,296.6,608.6,300z"/>
							<path fill="#CCCCCC" d="M597.4,275.7c0,0,10,11.2,11.1,12.7c0.1,0.1,0.1,0.1,0.1,0.1c0.3,0.6,2.9,4.3,1.8,8.5
								c0,0-0.3-4.8-3.2-7.6C607.3,289.4,594.7,276.6,597.4,275.7z"/>
						</g>
						<g>
							<path fill="#F2F2F2" d="M608.7,298.3c0,0-9.8-10.1-11.8-13.9c0,0-2.9-4.8,0.1-11.1c0,0,9.8,11.6,11.5,13.2
								C608.5,286.5,613.5,294.9,608.7,298.3z"/>
							<path fill="#CCCCCC" d="M597.5,274c0,0,10,11.2,11.1,12.7c0.1,0.1,0.1,0.1,0.1,0.1c0.3,0.6,2.9,4.3,1.8,8.5
								c0,0-0.3-4.8-3.2-7.6C607.4,287.7,594.8,275,597.5,274z"/>
							<path fill="#F2F2F2" d="M608.6,286.7c0,0-9.8-10.1-11.8-13.9c0,0-2.9-4.8,0.1-11.1c0,0,9.8,11.6,11.5,13.2
								C608.4,274.9,613.3,283.2,608.6,286.7z"/>
							<path fill="#CCCCCC" d="M597.4,262.3c0,0,10,11.2,11.1,12.7c0.1,0.1,0.1,0.1,0.1,0.1c0.3,0.6,2.9,4.3,1.8,8.5
								c0,0-0.3-4.8-3.2-7.6C607.3,276.1,594.7,263.3,597.4,262.3z"/>
						</g>
						<g>
							<path fill="#F2F2F2" d="M608.7,285c0,0-9.8-10.1-11.8-13.9c0,0-2.9-4.8,0.1-11.1c0,0,9.8,11.6,11.5,13.2
								C608.5,273.2,613.5,281.6,608.7,285z"/>
							<path fill="#CCCCCC" d="M597.5,260.7c0,0,10,11.2,11.1,12.7c0.1,0.1,0.1,0.1,0.1,0.1c0.3,0.6,2.9,4.3,1.8,8.5
								c0,0-0.3-4.8-3.2-7.6C607.4,274.4,594.8,261.7,597.5,260.7z"/>
							<path fill="#F2F2F2" d="M608.6,273.3c0,0-9.8-10.1-11.8-13.9c0,0-2.9-4.8,0.1-11.1c0,0,9.8,11.6,11.5,13.2
								C608.4,261.5,613.3,269.9,608.6,273.3z"/>
							<path fill="#CCCCCC" d="M597.4,249c0,0,10,11.2,11.1,12.7c0.1,0.1,0.1,0.1,0.1,0.1c0.3,0.6,2.9,4.3,1.8,8.5
								c0,0-0.3-4.8-3.2-7.6C607.3,262.7,594.7,250,597.4,249z"/>
						</g>
						<g>
							<path fill="#F2F2F2" d="M608.7,271.7c0,0-9.8-10.1-11.8-13.9c0,0-2.9-4.8,0.1-11.1c0,0,9.8,11.6,11.5,13.2
								C608.5,259.9,613.5,268.3,608.7,271.7z"/>
							<path fill="#CCCCCC" d="M597.5,247.4c0,0,10,11.2,11.1,12.7c0.1,0.1,0.1,0.1,0.1,0.1c0.3,0.6,2.9,4.3,1.8,8.5
								c0,0-0.3-4.8-3.2-7.6C607.4,261.1,594.8,248.4,597.5,247.4z"/>
							<path fill="#F2F2F2" d="M608.6,260c0,0-9.8-10.1-11.8-13.9c0,0-2.9-4.8,0.1-11.1c0,0,9.8,11.6,11.5,13.2
								C608.4,248.2,613.3,256.6,608.6,260z"/>
							<path fill="#CCCCCC" d="M597.4,235.7c0,0,10,11.2,11.1,12.7c0.1,0.1,0.1,0.1,0.1,0.1c0.3,0.6,2.9,4.3,1.8,8.5
								c0,0-0.3-4.8-3.2-7.6C607.3,249.4,594.7,236.7,597.4,235.7z"/>
						</g>
						<g>
							<path fill="#F2F2F2" d="M608.7,258.4c0,0-9.8-10.1-11.8-13.9c0,0-2.9-4.8,0.1-11.1c0,0,9.8,11.6,11.5,13.2
								C608.5,246.6,613.5,255,608.7,258.4z"/>
							<path fill="#CCCCCC" d="M597.5,234.1c0,0,10,11.2,11.1,12.7c0.1,0.1,0.1,0.1,0.1,0.1c0.3,0.6,2.9,4.3,1.8,8.5
								c0,0-0.3-4.8-3.2-7.6C607.4,247.8,594.8,235,597.5,234.1z"/>
							<path fill="#F2F2F2" d="M608.6,246.7c0,0-9.8-10.1-11.8-13.9c0,0-2.9-4.8,0.1-11.1c0,0,9.8,11.6,11.5,13.2
								C608.4,234.9,613.3,243.3,608.6,246.7z"/>
							<path fill="#CCCCCC" d="M597.4,222.4c0,0,10,11.2,11.1,12.7c0.1,0.1,0.1,0.1,0.1,0.1c0.3,0.6,2.9,4.3,1.8,8.5
								c0,0-0.3-4.8-3.2-7.6C607.3,236.1,594.7,223.4,597.4,222.4z"/>
						</g>
						<g>
							<path fill="#F2F2F2" d="M608.7,245.1c0,0-9.8-10.1-11.8-13.9c0,0-2.9-4.8,0.1-11.1c0,0,9.8,11.6,11.5,13.2
								C608.5,233.3,613.5,241.6,608.7,245.1z"/>
							<path fill="#CCCCCC" d="M597.5,220.7c0,0,10,11.2,11.1,12.7c0.1,0.1,0.1,0.1,0.1,0.1c0.3,0.6,2.9,4.3,1.8,8.5
								c0,0-0.3-4.8-3.2-7.6C607.4,234.5,594.8,221.7,597.5,220.7z"/>
							<path fill="#F2F2F2" d="M608.6,233.4c0,0-9.8-10.1-11.8-13.9c0,0-2.9-4.8,0.1-11.1c0,0,9.8,11.6,11.5,13.2
								C608.4,221.6,613.3,230,608.6,233.4z"/>
							<path fill="#CCCCCC" d="M597.4,209c0,0,10,11.2,11.1,12.7c0.1,0.1,0.1,0.1,0.1,0.1c0.3,0.6,2.9,4.3,1.8,8.5
								c0,0-0.3-4.8-3.2-7.6C607.3,222.8,594.7,210,597.4,209z"/>
						</g>
						<g>
							<path fill="#F2F2F2" d="M608.7,231.7c0,0-9.8-10.1-11.8-13.9c0,0-2.9-4.8,0.1-11.1c0,0,9.8,11.6,11.5,13.2
								C608.5,219.9,613.5,228.3,608.7,231.7z"/>
							<path fill="#CCCCCC" d="M597.5,207.4c0,0,10,11.2,11.1,12.7c0.1,0.1,0.1,0.1,0.1,0.1c0.3,0.6,2.9,4.3,1.8,8.5
								c0,0-0.3-4.8-3.2-7.6C607.4,221.1,594.8,208.4,597.5,207.4z"/>
							<path fill="#F2F2F2" d="M608.6,220.1c0,0-9.8-10.1-11.8-13.9c0,0-2.9-4.8,0.1-11.1c0,0,9.8,11.6,11.5,13.2
								C608.4,208.2,613.3,216.6,608.6,220.1z"/>
							<path fill="#CCCCCC" d="M597.4,195.7c0,0,10,11.2,11.1,12.7c0.1,0.1,0.1,0.1,0.1,0.1c0.3,0.6,2.9,4.3,1.8,8.5
								c0,0-0.3-4.8-3.2-7.6C607.3,209.5,594.7,196.7,597.4,195.7z"/>
						</g>
						<g>
							<path fill="#F2F2F2" d="M608.7,218.4c0,0-9.8-10.1-11.8-13.9c0,0-0.7-1.2-1.1-3.2c-0.1-0.5-0.2-1-0.2-1.6c0-0.3,0-0.6,0-0.9
								l0-0.5l0-0.2l0,0c0.1-0.1,0.6-0.2,1-0.9c0,0,0.6-0.3,1.6-0.2c1.1,0.1,2.5,0.6,3.8,2.5c2.7,3.1,5.5,6.4,6.4,7.2
								C608.5,206.6,613.5,215,608.7,218.4z"/>
							<path fill="#CCCCCC" d="M597.2,197.1c-0.1,0.1,2.9-1,5.4,2.8c2.6,3,5.4,6.2,6,6.9c0.1,0.1,0.1,0.1,0.1,0.1
								c0.3,0.6,2.9,4.3,1.8,8.5c0,0-0.3-4.8-3.2-7.6c0,0-3.1-3.2-6-6.5c-1.4-1.5-2.7-3.8-3.6-3.7
								C597,197.4,596.7,197.5,597.2,197.1z"/>
							<path fill="#F2F2F2" d="M608.6,206.7c0,0-2.4-2.5-5.1-5.5c-0.7-0.8-1.4-1.5-2-2.3c-0.7-0.9-1.3-1.3-2-1.6
								c-1.4-0.5-2.4-0.3-2.9-0.1c0,0-0.2,0.1-0.4,0.2c-0.2,0.1-0.4,0.3-0.6,0.4c-0.1,0.1-0.1,0.2-0.1,0.1c0,0,0,0,0,0l-0.3,0
								c-0.2,0-0.3-0.1-0.5-0.1c-0.4-0.1-0.7-0.2-1.1-0.3c-0.7-0.2-1.5-0.5-2.3-0.9c0,0,0.7-0.6,1.8-1.6c0.6-0.5,1.2-1,1.9-1.6
								c0.4-0.3,0.6-0.6,0.9-0.9c0.3-0.3,0.7-0.6,1-0.8c1.6-1,4-1.3,6-0.8c2.1,0.5,3.7,1.6,4.3,2c0,0,0.2,0.2,0.4,0.5
								c0.3,0.3,0.6,0.8,1,1.5c0.4,0.7,0.7,1.5,1,2.5c0.1,0.6,0.2,0.8,0.3,1.1c0.1,0.3,0.2,0.6,0.3,0.9
								C610.9,202.1,611,205,608.6,206.7z"/>
							<path fill="#CCCCCC" d="M591.9,196.1c0,0,0.7-0.6,1.8-1.6c0.5-0.5,1.2-1,1.8-1.6c0.5-0.6,1.1-1.2,2-1.6
								c1.7-0.9,4.1-1,6.1-0.4c2,0.6,3.5,1.8,4,2.2c0.1,0.1,0.2,0.2,0.2,0.2c0.3,0.4,1.8,2,2.3,4.8c0.6,1.5,0.9,3.5,0.4,5.6
								c0,0-0.1-1.2-0.5-2.8c-0.2-0.8-0.5-1.6-1-2.5c-0.2-0.3-0.5-1.2-0.8-1.8c-0.4-0.6-0.8-1.2-1.3-1.6c0,0-0.3-0.3-0.7-0.6
								c-0.5-0.4-1.2-0.9-2.1-1.3c-1.7-0.8-4.2-1.1-5.9-0.4c-0.9,0.3-1.6,0.8-2.1,1.4c-0.2,0.3-0.4,0.5-0.6,0.8
								c-0.2,0.2-0.7,0.5-1,0.7C593.1,196.5,592.2,196.8,591.9,196.1z"/>
						</g>
						<g>
							<path fill="#F2F2F2" d="M608.7,205.1c0,0-2.4-2.5-5.1-5.5c-0.7-0.7-1.4-1.6-2.1-2.1c-0.7-0.5-1.5-0.9-2.2-1
								c-1.5-0.3-2.5,0.2-2.9,0.5c0,0-0.7,0.4-0.8,0.8c0,0.1-0.1,0.1-0.1,0.2l0,0l-0.4,0c-0.3,0-0.6,0-1-0.1
								c-1.3-0.2-2.8-0.5-4.4-1.3c0,0,2.9-2.4,6-5.1c1.4-1.3,3.7-2.1,5.8-2c2.1,0.1,4,0.8,4.7,1.1c0,0,0.8,0.5,1.8,1.7
								c1,1.2,2.1,3.1,2.5,5.6c0.1,0.4,0.1,0.5,0.1,0.6l0.1,0.5c0.1,0.3,0.1,0.7,0.1,1c0.1,0.7,0.1,1.3,0,2
								C610.5,203.1,609.9,204.2,608.7,205.1z"/>
							<path fill="#CCCCCC" d="M590.3,196c0,0,2.8-2.5,5.7-5.1c1.5-1.2,3.8-1.9,5.9-1.6c2.1,0.2,3.8,1,4.4,1.4
								c0.1,0.1,0.2,0.1,0.2,0.1c0.3,0.3,2.1,1.5,3.3,4.3c0.3,0.7,0.5,1.5,0.7,2.3l0.2,1c0,0.2,0.1,0.5,0.1,0.7c0.1,1,0,2-0.2,3
								c0,0-0.1-1.2-0.5-2.8c-0.1-0.4-0.2-0.8-0.4-1.2c-0.2-0.7-0.4-1.5-0.7-2.2c-0.6-1.4-1.6-2.6-2.8-3.2c0,0-1.3-0.9-3.2-1.3
								c-1.9-0.5-4.3-0.2-5.9,0.8c-0.4,0.2-0.8,0.5-1.1,0.8c-0.3,0.3-0.4,0.6-0.9,0.9c-0.8,0.6-1.5,1.1-2.2,1.5
								C591.5,196.4,590.5,196.7,590.3,196z"/>
							<path fill="#F2F2F2" d="M606.3,190.6c0,0-1.1-0.6-2.9-1c-1.7-0.4-4.1-0.3-6,0.7c-1,0.4-1.6,1.1-2.4,1.8
								c-0.8,0.7-1.6,1.3-2.3,1.9c-1.5,1.2-2.8,2.2-3.8,2.7c0,0-4.8,2.9-11.1-0.1c0,0,11.6-9.8,13.2-11.5c0,0,0.5-0.3,1.4-0.7
								c0.4-0.2,0.9-0.4,1.5-0.6l0.9-0.3c0.3-0.1,0.5-0.2,1.2-0.2c2.4-0.3,5.2,0.4,7.2,1.9C605.3,186.6,606.5,188.7,606.3,190.6z"/>
							<path fill="#CCCCCC" d="M578.6,196.1c0,0,11.2-10,12.7-11.1c0.1-0.1,0.1-0.1,0.1-0.1c0.3-0.1,1.4-0.9,2.9-1.4
								c0.4-0.1,0.7-0.3,1.4-0.4c0.8-0.1,1.7-0.1,2.7,0c1.9,0.3,3.8,1.1,5.4,2.5c0,0-0.5-0.3-1.4-0.7c-0.9-0.4-2.2-0.8-3.6-0.9
								c-0.7-0.1-1.5,0-2.3,0.1c-0.4,0.1-0.8,0.1-1.1,0.2c-0.2,0.1-0.4,0.2-0.6,0.3c-0.8,0.4-1.7,1-2.4,1.7
								C592.3,186.2,579.6,198.8,578.6,196.1z"/>
						</g>
						<g>
							<path fill="#F2F2F2" d="M601.3,184.8c0,0-10.1,9.8-13.9,11.8c0,0-4.8,2.9-11.1-0.1c0,0,11.6-9.8,13.2-11.5
								C589.5,185,597.9,180,601.3,184.8z"/>
							<path fill="#CCCCCC" d="M576.9,196c0,0,11.2-10,12.7-11.1c0.1-0.1,0.1-0.1,0.1-0.1c0.6-0.3,4.3-2.9,8.5-1.8
								c0,0-4.8,0.3-7.6,3.2C590.7,186.1,577.9,198.7,576.9,196z"/>
							<path fill="#F2F2F2" d="M589.6,184.9c0,0-10.1,9.8-13.9,11.8c0,0-4.8,2.9-11.1-0.1c0,0,11.6-9.8,13.2-11.5
								C577.8,185.1,586.2,180.1,589.6,184.9z"/>
							<path fill="#CCCCCC" d="M565.3,196.1c0,0,11.2-10,12.7-11.1c0.1-0.1,0.1-0.1,0.1-0.1c0.6-0.3,4.3-2.9,8.5-1.8
								c0,0-4.8,0.3-7.6,3.2C579,186.2,566.3,198.8,565.3,196.1z"/>
						</g>
						<g>
							<path fill="#F2F2F2" d="M588,184.8c0,0-10.1,9.8-13.9,11.8c0,0-4.8,2.9-11.1-0.1c0,0,11.6-9.8,13.2-11.5
								C576.1,185,584.5,180,588,184.8z"/>
							<path fill="#CCCCCC" d="M563.6,196c0,0,11.2-10,12.7-11.1c0.1-0.1,0.1-0.1,0.1-0.1c0.6-0.3,4.3-2.9,8.5-1.8
								c0,0-4.8,0.3-7.6,3.2C577.4,186.1,564.6,198.7,563.6,196z"/>
							<path fill="#F2F2F2" d="M576.3,184.9c0,0-10.1,9.8-13.9,11.8c0,0-4.8,2.9-11.1-0.1c0,0,11.6-9.8,13.2-11.5
								C564.5,185.1,572.9,180.1,576.3,184.9z"/>
							<path fill="#CCCCCC" d="M551.9,196.1c0,0,11.2-10,12.7-11.1c0.1-0.1,0.1-0.1,0.1-0.1c0.6-0.3,4.3-2.9,8.5-1.8
								c0,0-4.8,0.3-7.6,3.2C565.7,186.2,552.9,198.8,551.9,196.1z"/>
						</g>
						<g>
							<path fill="#F2F2F2" d="M574.6,184.8c0,0-10.1,9.8-13.9,11.8c0,0-4.8,2.9-11.1-0.1c0,0,11.6-9.8,13.2-11.5
								C562.8,185,571.2,180,574.6,184.8z"/>
							<path fill="#CCCCCC" d="M550.3,196c0,0,11.2-10,12.7-11.1c0.1-0.1,0.1-0.1,0.1-0.1c0.6-0.3,4.3-2.9,8.5-1.8
								c0,0-4.8,0.3-7.6,3.2C564,186.1,551.3,198.7,550.3,196z"/>
							<path fill="#F2F2F2" d="M563,184.9c0,0-10.1,9.8-13.9,11.8c0,0-4.8,2.9-11.1-0.1c0,0,11.6-9.8,13.2-11.5
								C551.1,185.1,559.5,180.1,563,184.9z"/>
							<path fill="#CCCCCC" d="M538.6,196.1c0,0,11.2-10,12.7-11.1c0.1-0.1,0.1-0.1,0.1-0.1c0.6-0.3,4.3-2.9,8.5-1.8
								c0,0-4.8,0.3-7.6,3.2C552.4,186.2,539.6,198.8,538.6,196.1z"/>
						</g>
						<g>
							<path fill="#F2F2F2" d="M561.3,184.8c0,0-10.1,9.8-13.9,11.8c0,0-4.8,2.9-11.1-0.1c0,0,11.6-9.8,13.2-11.5
								C549.5,185,557.9,180,561.3,184.8z"/>
							<path fill="#CCCCCC" d="M537,196c0,0,11.2-10,12.7-11.1c0.1-0.1,0.1-0.1,0.1-0.1c0.6-0.3,4.3-2.9,8.5-1.8
								c0,0-4.8,0.3-7.6,3.2C550.7,186.1,538,198.7,537,196z"/>
							<path fill="#F2F2F2" d="M549.6,184.9c0,0-10.1,9.8-13.9,11.8c0,0-4.8,2.9-11.1-0.1c0,0,11.6-9.8,13.2-11.5
								C537.8,185.1,546.2,180.1,549.6,184.9z"/>
							<path fill="#CCCCCC" d="M525.3,196.1c0,0,11.2-10,12.7-11.1c0.1-0.1,0.1-0.1,0.1-0.1c0.6-0.3,4.3-2.9,8.5-1.8
								c0,0-4.8,0.3-7.6,3.2C539,186.2,526.3,198.8,525.3,196.1z"/>
						</g>
						<g>
							<path fill="#F2F2F2" d="M548,184.8c0,0-10.1,9.8-13.9,11.8c0,0-4.8,2.9-11.1-0.1c0,0,11.6-9.8,13.2-11.5
								C536.2,185,544.6,180,548,184.8z"/>
							<path fill="#CCCCCC" d="M523.7,196c0,0,11.2-10,12.7-11.1c0.1-0.1,0.1-0.1,0.1-0.1c0.6-0.3,4.3-2.9,8.5-1.8
								c0,0-4.8,0.3-7.6,3.2C537.4,186.1,524.7,198.7,523.7,196z"/>
							<path fill="#F2F2F2" d="M536.3,184.9c0,0-10.1,9.8-13.9,11.8c0,0-4.8,2.9-11.1-0.1c0,0,11.6-9.8,13.2-11.5
								C524.5,185.1,532.9,180.1,536.3,184.9z"/>
							<path fill="#CCCCCC" d="M512,196.1c0,0,11.2-10,12.7-11.1c0.1-0.1,0.1-0.1,0.1-0.1c0.6-0.3,4.3-2.9,8.5-1.8
								c0,0-4.8,0.3-7.6,3.2C525.7,186.2,513,198.8,512,196.1z"/>
						</g>
						<g>
							<path fill="#F2F2F2" d="M534.7,184.8c0,0-10.1,9.8-13.9,11.8c0,0-4.8,2.9-11.1-0.1c0,0,11.6-9.8,13.2-11.5
								C522.9,185,531.3,180,534.7,184.8z"/>
							<path fill="#CCCCCC" d="M510.3,196c0,0,11.2-10,12.7-11.1c0.1-0.1,0.1-0.1,0.1-0.1c0.6-0.3,4.3-2.9,8.5-1.8
								c0,0-4.8,0.3-7.6,3.2C524.1,186.1,511.3,198.7,510.3,196z"/>
							<path fill="#F2F2F2" d="M523,184.9c0,0-10.1,9.8-13.9,11.8c0,0-4.8,2.9-11.1-0.1c0,0,11.6-9.8,13.2-11.5
								C511.2,185.1,519.6,180.1,523,184.9z"/>
							<path fill="#CCCCCC" d="M498.7,196.1c0,0,11.2-10,12.7-11.1c0.1-0.1,0.1-0.1,0.1-0.1c0.6-0.3,4.3-2.9,8.5-1.8
								c0,0-4.8,0.3-7.6,3.2C512.4,186.2,499.7,198.8,498.7,196.1z"/>
						</g>
						<g>
							<path fill="#F2F2F2" d="M521.4,184.8c0,0-10.1,9.8-13.9,11.8c0,0-4.8,2.9-11.1-0.1c0,0,11.6-9.8,13.2-11.5
								C509.5,185,517.9,180,521.4,184.8z"/>
							<path fill="#CCCCCC" d="M497,196c0,0,11.2-10,12.7-11.1c0.1-0.1,0.1-0.1,0.1-0.1c0.6-0.3,4.3-2.9,8.5-1.8
								c0,0-4.8,0.3-7.6,3.2C510.8,186.1,498,198.7,497,196z"/>
							<path fill="#F2F2F2" d="M509.7,184.9c0,0-10.1,9.8-13.9,11.8c0,0-4.8,2.9-11.1-0.1c0,0,11.6-9.8,13.2-11.5
								C497.9,185.1,506.2,180.1,509.7,184.9z"/>
							<path fill="#CCCCCC" d="M485.3,196.1c0,0,11.2-10,12.7-11.1c0.1-0.1,0.1-0.1,0.1-0.1c0.6-0.3,4.3-2.9,8.5-1.8
								c0,0-4.8,0.3-7.6,3.2C499.1,186.2,486.3,198.8,485.3,196.1z"/>
						</g>
						<g>
							<path fill="#F2F2F2" d="M508,184.8c0,0-10.1,9.8-13.9,11.8c0,0-4.8,2.9-11.1-0.1c0,0,11.6-9.8,13.2-11.5
								C496.2,185,504.6,180,508,184.8z"/>
							<path fill="#CCCCCC" d="M483.7,196c0,0,11.2-10,12.7-11.1c0.1-0.1,0.1-0.1,0.1-0.1c0.6-0.3,4.3-2.9,8.5-1.8
								c0,0-4.8,0.3-7.6,3.2C497.4,186.1,484.7,198.7,483.7,196z"/>
							<path fill="#F2F2F2" d="M496.3,184.9c0,0-10.1,9.8-13.9,11.8c0,0-4.8,2.9-11.1-0.1c0,0,11.6-9.8,13.2-11.5
								C484.5,185.1,492.9,180.1,496.3,184.9z"/>
							<path fill="#CCCCCC" d="M472,196.1c0,0,11.2-10,12.7-11.1c0.1-0.1,0.1-0.1,0.1-0.1c0.6-0.3,4.3-2.9,8.5-1.8
								c0,0-4.8,0.3-7.6,3.2C485.7,186.2,473,198.8,472,196.1z"/>
						</g>
						<g>
							<path fill="#F2F2F2" d="M494.7,184.8c0,0-10.1,9.8-13.9,11.8c0,0-4.8,2.9-11.1-0.1c0,0,11.6-9.8,13.2-11.5
								C482.9,185,491.3,180,494.7,184.8z"/>
							<path fill="#CCCCCC" d="M470.4,196c0,0,11.2-10,12.7-11.1c0.1-0.1,0.1-0.1,0.1-0.1c0.6-0.3,4.3-2.9,8.5-1.8
								c0,0-4.8,0.3-7.6,3.2C484.1,186.1,471.4,198.7,470.4,196z"/>
							<path fill="#F2F2F2" d="M483,184.9c0,0-10.1,9.8-13.9,11.8c0,0-4.8,2.9-11.1-0.1c0,0,11.6-9.8,13.2-11.5
								C471.2,185.1,479.6,180.1,483,184.9z"/>
							<path fill="#CCCCCC" d="M458.7,196.1c0,0,11.2-10,12.7-11.1c0.1-0.1,0.1-0.1,0.1-0.1c0.6-0.3,4.3-2.9,8.5-1.8
								c0,0-4.8,0.3-7.6,3.2C472.4,186.2,459.7,198.8,458.7,196.1z"/>
						</g>
						<g>
							<path fill="#F2F2F2" d="M481.4,184.8c0,0-10.1,9.8-13.9,11.8c0,0-4.8,2.9-11.1-0.1c0,0,11.6-9.8,13.2-11.5
								C469.6,185,478,180,481.4,184.8z"/>
							<path fill="#CCCCCC" d="M457.1,196c0,0,11.2-10,12.7-11.1c0.1-0.1,0.1-0.1,0.1-0.1c0.6-0.3,4.3-2.9,8.5-1.8
								c0,0-4.8,0.3-7.6,3.2C470.8,186.1,458,198.7,457.1,196z"/>
							<path fill="#F2F2F2" d="M469.7,184.9c0,0-10.1,9.8-13.9,11.8c0,0-4.8,2.9-11.1-0.1c0,0,11.6-9.8,13.2-11.5
								C457.9,185.1,466.3,180.1,469.7,184.9z"/>
							<path fill="#CCCCCC" d="M445.4,196.1c0,0,11.2-10,12.7-11.1c0.1-0.1,0.1-0.1,0.1-0.1c0.6-0.3,4.3-2.9,8.5-1.8
								c0,0-4.8,0.3-7.6,3.2C459.1,186.2,446.4,198.8,445.4,196.1z"/>
						</g>
						<g>
							<path fill="#F2F2F2" d="M468.1,184.8c0,0-10.1,9.8-13.9,11.8c0,0-4.8,2.9-11.1-0.1c0,0,11.6-9.8,13.2-11.5
								C456.3,185,464.6,180,468.1,184.8z"/>
							<path fill="#CCCCCC" d="M443.7,196c0,0,11.2-10,12.7-11.1c0.1-0.1,0.1-0.1,0.1-0.1c0.6-0.3,4.3-2.9,8.5-1.8
								c0,0-4.8,0.3-7.6,3.2C457.5,186.1,444.7,198.7,443.7,196z"/>
							<path fill="#F2F2F2" d="M456.4,184.9c0,0-10.1,9.8-13.9,11.8c0,0-4.8,2.9-11.1-0.1c0,0,11.6-9.8,13.2-11.5
								C444.6,185.1,453,180.1,456.4,184.9z"/>
							<path fill="#CCCCCC" d="M432.1,196.1c0,0,11.2-10,12.7-11.1c0.1-0.1,0.1-0.1,0.1-0.1c0.6-0.3,4.3-2.9,8.5-1.8
								c0,0-4.8,0.3-7.6,3.2C445.8,186.2,433,198.8,432.1,196.1z"/>
						</g>
						<g>
							<path fill="#F2F2F2" d="M454.7,184.8c0,0-10.1,9.8-13.9,11.8c0,0-4.8,2.9-11.1-0.1c0,0,11.6-9.8,13.2-11.5
								C442.9,185,451.3,180,454.7,184.8z"/>
							<path fill="#CCCCCC" d="M430.4,196c0,0,11.2-10,12.7-11.1c0.1-0.1,0.1-0.1,0.1-0.1c0.6-0.3,4.3-2.9,8.5-1.8
								c0,0-4.8,0.3-7.6,3.2C444.1,186.1,431.4,198.7,430.4,196z"/>
							<path fill="#F2F2F2" d="M443.1,184.9c0,0-10.1,9.8-13.9,11.8c0,0-4.8,2.9-11.1-0.1c0,0,11.6-9.8,13.2-11.5
								C431.2,185.1,439.6,180.1,443.1,184.9z"/>
							<path fill="#CCCCCC" d="M418.7,196.1c0,0,11.2-10,12.7-11.1c0.1-0.1,0.1-0.1,0.1-0.1c0.6-0.3,4.3-2.9,8.5-1.8
								c0,0-4.8,0.3-7.6,3.2C432.5,186.2,419.7,198.8,418.7,196.1z"/>
						</g>
						<g>
							<path fill="#F2F2F2" d="M441.4,184.8c0,0-2.5,2.4-5.5,5.1c-1.5,1.3-3.1,2.8-4.6,4c0.2,2.2-3.5,3.9-4.3,4.2
								c0,0-0.6-0.1-1.5-0.7c-0.8-0.6-1.7-2-1.7-3.9c0-1.9,0.9-4.1,2.5-5.6c0.7-0.8,1.6-1.4,2.3-1.8c0.5-0.4,0.8-0.8,1-1
								C429.6,185,438,180,441.4,184.8z"/>
							<path fill="#CCCCCC" d="M426.5,197.9c0,0-0.6-0.2-1.4-1c-0.7-0.7-1.5-2.3-1.4-4.2c0.1-1.9,1.3-4.1,2.8-5.5
								c0.7-0.7,1.7-1.2,2.2-1.6c0.5-0.4,0.8-0.7,1-0.8c0.1-0.1,0.1-0.1,0.1-0.1c0.6-0.3,4.3-2.9,8.5-1.8c0,0-4.8,0.3-7.6,3.2
								c0,0-0.8,0.8-2,1.9c-1.5,1.1-3.1,3-3.4,4.9c-0.4,1.9,0.3,3.4,0.9,4.1C426.9,197.8,427.2,197.9,426.5,197.9z"/>
							<path fill="#F2F2F2" d="M429.7,184.9c0,0-0.2,0.2-0.4,0.4c-0.3,0.3-0.6,0.6-1.4,1.2c-1.5,1-3,2.8-3.6,4.8
								c-0.6,2-0.2,4,0.6,5.2c0.4,0.6,0.9,1,1.3,1.3c0.2,0.1,0.4,0.2,0.6,0.3c0.2,0,0.3,0.4,0.5,0.6c0,0,2.9,4.8-0.1,11.1
								c0,0-2.5-2.9-5.1-6c-2.6-3.2-5.7-6-6.1-8.2c0,0,0-0.2-0.1-0.6c0-0.4,0-1,0-1.8c0.2-1.5,0.8-3.7,2.3-5.6
								c1.5-1.9,3.8-3.6,6.3-4c1.2-0.2,2.4-0.2,3.5,0.1c0.2,0.1,0.6,0.1,0.7,0.2c0.1,0.1,0.3,0.2,0.4,0.3
								C429.3,184.3,429.5,184.6,429.7,184.9z"/>
						</g>
					</g>
				</g>
			</g>
		</g>
	</g>
	<g>
		<path fill="#FFFFFF" d="M538,302.9L538,302.9l35.1-25.6c2-1.4,1-4.6-1.5-4.6l-41.8,0c-1.1,0-2.1-0.7-2.4-1.8l-13-40.1
			c-0.8-2.3-4.1-2.3-4.8,0l-13,40.1c-0.3,1-1.3,1.8-2.4,1.8l-41.8,0c-2.5,0-3.5,3.2-1.5,4.6l34.2,24.9c0.9,0.6,1.3,1.8,0.9,2.8
			L473,344.9c-0.8,2.3,1.9,4.3,3.9,2.8l33.9-24.6c0.9-0.6,2.1-0.6,3,0l33.9,24.6c2,1.4,4.7-0.5,3.9-2.8L538,302.9z"/>
		<path fill="#F2F2F2" d="M512,293.7"/>
		<path fill="#E0E0E0" d="M551.6,344.9l-13.6-42l0,0l35.1-25.5c1.1-0.8,1.3-2.1,0.8-3.1l0,0L512,293.7l-61.6-19.5H450
			c-0.5,1-0.3,2.3,0.8,3.1l34.2,24.9c0.9,0.6,1.3,1.8,0.9,2.8L473,344.9c-0.2,0.7-0.1,1.4,0.2,2l0.2,0.3c0,0,0,0,0,0l38.6-53.6
			l39.3,53.6c0,0,0-0.1,0.1-0.1l0.1-0.2C551.8,346.3,551.9,345.6,551.6,344.9z"/>
	</g>
</g>
</svg>
